<svg xmlns="http://www.w3.org/2000/svg" version="1.1" fill="#0037C1" viewBox="-5.0 -10.0 110.0 135.0">
 <path d="m78.426 44.062-14.398-7.4023c-1.4414-0.72656-3.1992-0.16797-3.957 1.2578-0.69922 1.3945-0.25391 3.0898 1.0391 3.957l1.2773 0.90234c5.7383 3.957 10.23 8.9062 3.1484 11.797l-34.004 10.922s-30.676 9.8945-14.766 30.598c0.6875 0.89062 1.7461 1.4102 2.8711 1.4062h51.336c0.89062 0 1.6133-0.72266 1.6133-1.6133 0-0.46094-0.19922-0.90234-0.54297-1.207-6.0156-5.375-15.734-17.438 3.5703-27.363 25.691-13.191 2.8125-23.254 2.8125-23.254z"/>
 <path d="m33.836 53.621c1.7266 1.7031 4.5 1.7031 6.2227 0 5.5312-5.4336 16.523-17.891 16.652-31.133 0.070312-10.488-8.0156-19.234-18.48-19.988h-1.2773c-10.93 0-19.789 8.8594-19.789 19.793 0.03125 13.289 11.062 25.855 16.672 31.328zm-4.7891-31.328c0-4.3711 3.543-7.918 7.918-7.918 4.3711 0 7.918 3.543 7.918 7.918 0 4.3711-3.543 7.918-7.918 7.918-4.3711 0-7.918-3.543-7.918-7.918z"/></svg>
